<svg version="1.1" id="Layer_1" xmlns="http://www.w3.org/2000/svg" xmlns:xlink="http://www.w3.org/1999/xlink" x="0px" y="0px"
	 width="100%" viewBox="0 0 240 100" enable-background="new 0 0 240 100" xml:space="preserve">
<path fill="#000000" opacity="1.000000" stroke="none" 
	d="
M241.000000,58.000000 
	C241.000000,72.323997 241.000000,86.647995 241.000000,100.978989 
	C161.061447,100.985992 81.122894,100.985992 1.092167,100.985992 
	C1.092167,67.750053 1.092167,34.499760 1.092167,1.124735 
	C80.999870,1.124735 160.999908,1.124735 241.000000,1.124735 
	C241.000000,17.083479 241.000000,33.073082 240.646469,49.488930 
	C239.758545,49.534275 239.018707,49.272125 238.719818,48.755081 
	C231.421021,36.128925 224.109589,23.509155 216.958023,10.799562 
	C215.493805,8.197361 213.855759,6.850718 210.720520,6.971937 
	C205.401657,7.177579 200.034515,7.355145 194.747971,6.877346 
	C187.608582,6.232086 182.988373,9.105270 180.324600,15.549047 
	C178.952988,18.866976 176.606949,20.087204 172.939758,20.049419 
	C156.955673,19.884731 140.954575,20.379738 124.989594,19.804306 
	C117.898201,19.548708 114.389977,22.989712 111.290230,28.277897 
	C110.603821,29.448896 109.134750,30.161125 107.554634,31.057550 
	C88.859306,31.030502 70.635414,31.030502 52.411514,31.030502 
	C68.516922,32.003712 84.615723,31.972136 100.714073,32.042385 
	C102.802170,32.051502 104.887970,32.586182 106.508415,32.903965 
	C89.927826,32.949348 73.807083,33.238476 57.702900,32.846844 
	C51.711842,32.701149 47.694756,34.461761 45.721893,40.033459 
	C43.975513,44.965538 40.533157,46.217392 35.655807,46.070984 
	C27.025270,45.811909 18.379822,45.945839 9.743176,46.080208 
	C7.986313,46.107544 4.903938,45.122864 5.913817,49.377979 
	C7.650717,52.231483 9.303595,54.735153 10.967528,57.440552 
	C10.978584,57.642284 11.060452,58.037975 11.138731,58.272232 
	C11.414984,58.789860 11.681574,58.973778 12.006439,59.018723 
	C11.996099,58.979195 11.917041,58.999866 11.981268,59.366844 
	C14.353857,63.517612 16.662218,67.301399 18.974630,71.046814 
	C18.978680,71.008453 18.901957,71.000366 18.943920,71.372742 
	C21.975138,76.541542 24.964394,81.337982 27.984875,86.091705 
	C28.016102,86.048988 27.930679,85.986534 27.991413,86.311707 
	C28.688793,87.494759 29.325439,88.352646 29.977358,89.423935 
	C29.992632,89.637337 30.076494,90.056946 30.052338,90.365051 
	C30.057451,91.083557 30.086723,91.493965 30.314735,92.210800 
	C32.584297,93.325676 34.630714,94.747795 36.730366,94.831299 
	C43.994598,95.120178 51.279018,94.851837 58.552345,94.983688 
	C61.936069,95.045029 63.983814,93.630112 65.735527,90.775040 
	C67.502335,87.895378 69.957100,85.437805 72.568810,82.844124 
	C80.992325,82.882744 88.957474,82.872551 97.395294,82.893387 
	C107.827988,82.944809 117.789879,82.862167 127.747032,83.041733 
	C131.212875,83.104233 133.224762,82.020592 134.466400,78.614815 
	C136.690506,72.514137 141.199005,69.828674 147.861160,69.940239 
	C162.133865,70.179260 176.425049,69.666885 190.685303,70.150772 
	C197.898117,70.395531 202.221085,67.685951 205.015213,61.314877 
	C205.661224,59.841850 207.626633,58.947472 209.453888,57.852356 
	C220.281906,57.945263 230.640945,57.972633 241.000000,58.000000 
z"/>
<path fill="#022F49" opacity="1.000000" stroke="none" 
	d="
M11.060452,58.037975 
	C11.060452,58.037975 10.978584,57.642284 10.939291,57.051498 
	C9.209929,53.983189 7.519862,51.505665 5.829795,49.028145 
	C4.903938,45.122864 7.986313,46.107544 9.743176,46.080208 
	C18.379822,45.945839 27.025270,45.811909 35.655807,46.070984 
	C40.533157,46.217392 43.975513,44.965538 45.721893,40.033459 
	C47.694756,34.461761 51.711842,32.701149 57.702900,32.846844 
	C73.807083,33.238476 89.927826,32.949348 106.702858,32.724968 
	C107.584503,32.041145 107.805283,31.562872 108.026062,31.084599 
	C109.134750,30.161125 110.603821,29.448896 111.290230,28.277897 
	C114.389977,22.989712 117.898201,19.548708 124.989594,19.804306 
	C140.954575,20.379738 156.955673,19.884731 172.939758,20.049419 
	C176.606949,20.087204 178.952988,18.866976 180.324600,15.549047 
	C182.988373,9.105270 187.608582,6.232086 194.747971,6.877346 
	C200.034515,7.355145 205.401657,7.177579 210.720520,6.971937 
	C213.855759,6.850718 215.493805,8.197361 216.958023,10.799562 
	C224.109589,23.509155 231.421021,36.128925 238.719818,48.755081 
	C239.018707,49.272125 239.758545,49.534275 240.646469,49.957588 
	C241.000000,51.714359 241.000000,53.428715 240.531342,55.568707 
	C230.059647,56.007839 220.056595,56.021339 209.910156,56.247925 
	C209.506119,56.902950 209.245514,57.344883 208.984909,57.786819 
	C207.626633,58.947472 205.661224,59.841850 205.015213,61.314877 
	C202.221085,67.685951 197.898117,70.395531 190.685303,70.150772 
	C176.425049,69.666885 162.133865,70.179260 147.861160,69.940239 
	C141.199005,69.828674 136.690506,72.514137 134.466400,78.614815 
	C133.224762,82.020592 131.212875,83.104233 127.747032,83.041733 
	C117.789879,82.862167 107.827988,82.944809 97.009521,82.770493 
	C88.137543,82.676147 80.124001,82.735733 72.110451,82.795319 
	C69.957100,85.437805 67.502335,87.895378 65.735527,90.775040 
	C63.983814,93.630112 61.936069,95.045029 58.552345,94.983688 
	C51.279018,94.851837 43.994598,95.120178 36.730366,94.831299 
	C34.630714,94.747795 32.584297,93.325676 30.347435,92.026352 
	C30.146429,91.042625 30.111462,90.549789 30.076494,90.056946 
	C30.076494,90.056946 29.992632,89.637337 29.885233,89.111191 
	C29.162115,87.718872 28.546396,86.852707 27.930679,85.986534 
	C27.930679,85.986534 28.016102,86.048988 27.936604,85.717308 
	C24.872055,80.590538 21.887007,75.795456 18.901957,71.000366 
	C18.901957,71.000366 18.978680,71.008453 18.922382,70.674736 
	C16.549736,66.560638 14.233389,62.780251 11.917041,58.999866 
	C11.917041,58.999866 11.996099,58.979195 11.853687,58.842499 
	C11.508315,58.469570 11.291373,58.246960 11.060452,58.037975 
M70.384102,42.888927 
	C64.603394,52.802238 58.785915,62.694370 53.057343,72.637726 
	C50.154179,77.676880 47.252155,82.731476 44.724602,87.960358 
	C44.190037,89.066246 44.808990,91.860977 45.716599,92.347458 
	C51.228371,95.301765 60.836369,92.220650 64.010742,86.743378 
	C68.929863,78.255592 73.743843,69.706802 78.679413,61.228714 
	C79.467323,59.875278 80.656944,58.755711 81.660858,57.528023 
	C82.067558,57.792736 82.474258,58.057449 82.880959,58.322163 
	C82.294464,59.957355 81.902145,61.698067 81.082428,63.206516 
	C79.178093,66.710876 77.014008,70.072998 75.054489,73.548752 
	C72.744621,77.645935 73.615067,79.607498 78.165512,79.809265 
	C83.808952,80.059486 89.474754,79.955620 95.126335,79.817711 
	C98.738525,79.729561 100.046577,77.778610 98.207985,74.542015 
	C91.473076,62.686077 84.664719,50.871155 77.783928,39.099300 
	C76.135826,36.279686 74.168816,36.497108 72.480713,39.234077 
	C71.869827,40.224522 71.326813,41.256821 70.384102,42.888927 
M217.701141,53.999260 
	C221.700546,53.995712 225.700867,54.045708 229.699127,53.976650 
	C236.481964,53.859497 237.317520,52.479042 234.015869,46.695484 
	C227.903610,35.988533 221.734695,25.313807 215.559784,14.642789 
	C212.796448,9.867413 211.206223,9.882285 208.439316,14.686102 
	C203.948883,22.482201 199.520142,30.313921 195.013504,38.100586 
	C190.757812,45.453663 186.351913,52.721302 182.196823,60.130127 
	C181.063080,62.151684 179.197571,64.798340 182.686646,66.503654 
	C188.322098,69.258041 197.614914,66.266335 200.708496,60.876495 
	C205.681168,52.212814 210.633194,43.537140 215.653015,34.900864 
	C216.409058,33.600117 217.484741,32.485146 218.412567,31.284246 
	C218.859207,31.528002 219.305832,31.771755 219.752457,32.015507 
	C219.141479,33.754387 218.730316,35.598618 217.880035,37.211327 
	C215.782990,41.188705 213.569244,45.111187 211.240601,48.957790 
	C209.302811,52.158741 210.378098,53.573166 213.781235,53.877560 
	C214.775406,53.966484 215.778305,53.957870 217.701141,53.999260 
M113.155693,74.536346 
	C113.333122,76.209427 112.941811,78.932007 113.779793,79.386124 
	C119.434174,82.450279 129.269638,79.150932 132.463638,73.488052 
	C135.406769,68.269943 138.260880,63.000099 141.286835,57.830677 
	C143.909897,53.349499 146.718826,48.977119 149.445618,44.556652 
	C149.912125,44.763435 150.378647,44.970219 150.845154,45.177002 
	C150.337585,46.916183 150.094437,48.793945 149.269974,50.367065 
	C147.262604,54.197292 144.945816,57.863903 142.829239,61.638802 
	C141.011658,64.880463 141.972672,66.809372 145.742462,66.882904 
	C151.401779,66.993286 157.069214,67.075142 162.724274,66.892471 
	C167.336090,66.743515 168.336060,64.910683 165.983276,60.756397 
	C159.747894,49.746662 153.406708,38.795139 146.965286,27.904652 
	C144.416901,23.596117 142.323914,23.654354 139.822006,27.985594 
	C130.995865,43.265209 122.254539,58.593819 113.155693,74.536346 
M158.603943,22.995571 
	C156.940628,23.025042 155.274521,23.003691 153.614578,23.094687 
	C150.279465,23.277506 148.882996,24.912186 150.626205,27.996939 
	C157.172195,39.580578 163.784424,51.127930 170.501465,62.613068 
	C172.492065,66.016693 174.963684,65.892517 176.926910,62.502571 
	C186.095795,46.670509 195.236923,30.821726 204.219528,14.883971 
	C204.790497,13.870926 204.465836,11.328737 203.653641,10.735196 
	C199.837311,7.946297 188.662445,10.477127 186.174438,14.584425 
	C181.696213,21.977261 177.422607,29.493740 173.003723,36.923004 
	C171.281754,39.818123 169.398163,42.617119 167.588196,45.459900 
	C167.120880,45.229042 166.653564,44.998184 166.186249,44.767326 
	C166.661667,43.127499 166.881424,41.352348 167.663498,39.874851 
	C169.528748,36.351051 171.774155,33.029118 173.655075,29.512823 
	C176.265152,24.633404 175.453522,23.219534 170.051254,23.036011 
	C166.560867,22.917437 163.063583,23.001287 158.603943,22.995571 
M117.296516,27.785967 
	C111.249786,38.164524 105.203049,48.543083 99.156311,58.921642 
	C98.608139,58.674641 98.059967,58.427639 97.511795,58.180637 
	C98.032379,56.440338 98.306862,54.573597 99.123016,52.985157 
	C101.025139,49.283123 103.274620,45.760876 105.221451,42.080147 
	C107.301697,38.147209 106.425461,36.342731 102.100395,36.161102 
	C96.444244,35.923576 90.765991,35.941654 85.106857,36.133541 
	C80.738640,36.281651 80.044235,37.612198 82.225090,41.477898 
	C88.445015,52.503094 94.731171,63.491776 101.092888,74.435753 
	C104.018120,79.467979 106.248970,79.423698 109.214844,74.347588 
	C114.593910,65.141296 119.885582,55.883881 125.201591,46.640816 
	C128.690735,40.574150 132.296509,34.566925 135.521729,28.362413 
	C136.181854,27.092491 135.986664,24.062572 135.148010,23.553480 
	C131.223801,21.171383 121.083565,23.554434 117.296516,27.785967 
M33.231632,67.608009 
	C32.304668,68.920616 31.377708,70.233223 30.450747,71.545837 
	C30.029985,71.294830 29.609222,71.043816 29.188461,70.792809 
	C29.740778,69.145363 30.092783,67.393478 30.886225,65.871758 
	C32.653412,62.482536 34.616020,59.193626 36.545170,55.890808 
	C39.410484,50.985229 38.553101,49.203262 33.009251,49.054790 
	C28.186680,48.925629 23.356674,48.953644 18.532318,49.041737 
	C12.406699,49.153599 11.613160,50.610214 14.644605,55.845051 
	C20.646038,66.208611 26.670347,76.559074 32.627483,86.948059 
	C35.685661,92.281387 37.838337,92.390450 40.919441,87.119797 
	C49.062489,73.189987 57.183735,59.247253 65.250069,45.272953 
	C66.688705,42.780621 67.822220,40.112160 69.126465,37.464436 
	C58.360458,33.514328 51.595886,35.841076 46.587643,44.552280 
	C42.276726,52.050564 37.910778,59.517212 33.231632,67.608009 
z"/>
<path fill="#005454" opacity="1.000000" stroke="none" 
	d="
M209.453888,57.852356 
	C209.245514,57.344883 209.506119,56.902950 210.220001,56.526279 
	C220.782181,56.727695 230.891098,56.863846 241.000000,57.000000 
	C241.000000,57.000000 241.000000,57.500000 241.000000,57.750000 
	C230.640945,57.972633 220.281906,57.945263 209.453888,57.852356 
z"/>
<path fill="#000000" opacity="1.000000" stroke="none" 
	d="
M241.000000,56.750000 
	C230.891098,56.863846 220.782181,56.727695 210.363419,56.313194 
	C220.056595,56.021339 230.059647,56.007839 240.531342,55.997169 
	C241.000000,56.000000 241.000000,56.500000 241.000000,56.750000 
z"/>
<path fill="#00027E" opacity="1.000000" stroke="none" 
	d="
M107.554634,31.057549 
	C107.805283,31.562872 107.584503,32.041145 107.169281,32.698418 
	C104.887970,32.586182 102.802170,32.051502 100.714073,32.042385 
	C84.615723,31.972136 68.516922,32.003712 52.411514,31.030502 
	C70.635414,31.030502 88.859306,31.030502 107.554634,31.057549 
z"/>
<path fill="#00405D" opacity="1.000000" stroke="none" 
	d="
M18.943920,71.372742 
	C21.887007,75.795456 24.872055,80.590538 27.905376,85.760025 
	C24.964394,81.337982 21.975138,76.541542 18.943920,71.372742 
z"/>
<path fill="#00405D" opacity="1.000000" stroke="none" 
	d="
M11.981268,59.366844 
	C14.233389,62.780251 16.549736,66.560638 18.918333,70.713104 
	C16.662218,67.301399 14.353857,63.517612 11.981268,59.366844 
z"/>
<path fill="#001C55" opacity="1.000000" stroke="none" 
	d="
M72.568810,82.844131 
	C80.124001,82.735733 88.137543,82.676147 96.536865,82.739464 
	C88.957474,82.872551 80.992325,82.882744 72.568810,82.844131 
z"/>
<path fill="#00405D" opacity="1.000000" stroke="none" 
	d="
M5.913817,49.377979 
	C7.519862,51.505665 9.209929,53.983189 10.928235,56.849766 
	C9.303595,54.735153 7.650717,52.231483 5.913817,49.377979 
z"/>
<path fill="#00405D" opacity="1.000000" stroke="none" 
	d="
M27.991413,86.311707 
	C28.546396,86.852707 29.162115,87.718872 29.869959,88.897781 
	C29.325439,88.352646 28.688793,87.494759 27.991413,86.311707 
z"/>
<path fill="#00405D" opacity="1.000000" stroke="none" 
	d="
M30.052338,90.365051 
	C30.111462,90.549789 30.146429,91.042625 30.148695,91.719917 
	C30.086723,91.493965 30.057451,91.083557 30.052338,90.365051 
z"/>
<path fill="#00405D" opacity="1.000000" stroke="none" 
	d="
M11.138731,58.272232 
	C11.291373,58.246960 11.508315,58.469570 11.864027,58.882027 
	C11.681574,58.973778 11.414984,58.789860 11.138731,58.272232 
z"/>
<path fill="#03415E" opacity="1.000000" stroke="none" 
	d="
M70.568466,42.579475 
	C71.326813,41.256821 71.869827,40.224522 72.480713,39.234077 
	C74.168816,36.497108 76.135826,36.279686 77.783928,39.099300 
	C84.664719,50.871155 91.473076,62.686077 98.207985,74.542015 
	C100.046577,77.778610 98.738525,79.729561 95.126335,79.817711 
	C89.474754,79.955620 83.808952,80.059486 78.165512,79.809265 
	C73.615067,79.607498 72.744621,77.645935 75.054489,73.548752 
	C77.014008,70.072998 79.178093,66.710876 81.082428,63.206516 
	C81.902145,61.698067 82.294464,59.957355 82.880959,58.322163 
	C82.474258,58.057449 82.067558,57.792736 81.660858,57.528023 
	C80.656944,58.755711 79.467323,59.875278 78.679413,61.228714 
	C73.743843,69.706802 68.929863,78.255592 64.010742,86.743378 
	C60.836369,92.220650 51.228371,95.301765 45.716599,92.347458 
	C44.808990,91.860977 44.190037,89.066246 44.724602,87.960358 
	C47.252155,82.731476 50.154179,77.676880 53.057343,72.637726 
	C58.785915,62.694370 64.603394,52.802238 70.568466,42.579475 
z"/>
<path fill="#03415E" opacity="1.000000" stroke="none" 
	d="
M217.239166,53.996613 
	C215.778305,53.957870 214.775406,53.966484 213.781235,53.877560 
	C210.378098,53.573166 209.302811,52.158741 211.240601,48.957790 
	C213.569244,45.111187 215.782990,41.188705 217.880035,37.211327 
	C218.730316,35.598618 219.141479,33.754387 219.752457,32.015507 
	C219.305832,31.771755 218.859207,31.528002 218.412567,31.284246 
	C217.484741,32.485146 216.409058,33.600117 215.653015,34.900864 
	C210.633194,43.537140 205.681168,52.212814 200.708496,60.876495 
	C197.614914,66.266335 188.322098,69.258041 182.686646,66.503654 
	C179.197571,64.798340 181.063080,62.151684 182.196823,60.130127 
	C186.351913,52.721302 190.757812,45.453663 195.013504,38.100586 
	C199.520142,30.313921 203.948883,22.482201 208.439316,14.686102 
	C211.206223,9.882285 212.796448,9.867413 215.559784,14.642789 
	C221.734695,25.313807 227.903610,35.988533 234.015869,46.695484 
	C237.317520,52.479042 236.481964,53.859497 229.699127,53.976650 
	C225.700867,54.045708 221.700546,53.995712 217.239166,53.996613 
z"/>
<path fill="#03415E" opacity="1.000000" stroke="none" 
	d="
M113.318375,74.220093 
	C122.254539,58.593819 130.995865,43.265209 139.822006,27.985594 
	C142.323914,23.654354 144.416901,23.596117 146.965286,27.904652 
	C153.406708,38.795139 159.747894,49.746662 165.983276,60.756397 
	C168.336060,64.910683 167.336090,66.743515 162.724274,66.892471 
	C157.069214,67.075142 151.401779,66.993286 145.742462,66.882904 
	C141.972672,66.809372 141.011658,64.880463 142.829239,61.638802 
	C144.945816,57.863903 147.262604,54.197292 149.269974,50.367065 
	C150.094437,48.793945 150.337585,46.916183 150.845154,45.177002 
	C150.378647,44.970219 149.912125,44.763435 149.445618,44.556652 
	C146.718826,48.977119 143.909897,53.349499 141.286835,57.830677 
	C138.260880,63.000099 135.406769,68.269943 132.463638,73.488052 
	C129.269638,79.150932 119.434174,82.450279 113.779793,79.386124 
	C112.941811,78.932007 113.333122,76.209427 113.318375,74.220093 
z"/>
<path fill="#03425E" opacity="1.000000" stroke="none" 
	d="
M159.086670,22.994999 
	C163.063583,23.001287 166.560867,22.917437 170.051254,23.036011 
	C175.453522,23.219534 176.265152,24.633404 173.655075,29.512823 
	C171.774155,33.029118 169.528748,36.351051 167.663498,39.874851 
	C166.881424,41.352348 166.661667,43.127499 166.186249,44.767326 
	C166.653564,44.998184 167.120880,45.229042 167.588196,45.459900 
	C169.398163,42.617119 171.281754,39.818123 173.003723,36.923004 
	C177.422607,29.493740 181.696213,21.977261 186.174438,14.584425 
	C188.662445,10.477127 199.837311,7.946297 203.653641,10.735196 
	C204.465836,11.328737 204.790497,13.870926 204.219528,14.883971 
	C195.236923,30.821726 186.095795,46.670509 176.926910,62.502571 
	C174.963684,65.892517 172.492065,66.016693 170.501465,62.613068 
	C163.784424,51.127930 157.172195,39.580578 150.626205,27.996939 
	C148.882996,24.912186 150.279465,23.277506 153.614578,23.094687 
	C155.274521,23.003691 156.940628,23.025042 159.086670,22.994999 
z"/>
<path fill="#03415E" opacity="1.000000" stroke="none" 
	d="
M117.506088,27.484486 
	C121.083565,23.554434 131.223801,21.171383 135.148010,23.553480 
	C135.986664,24.062572 136.181854,27.092491 135.521729,28.362413 
	C132.296509,34.566925 128.690735,40.574150 125.201591,46.640816 
	C119.885582,55.883881 114.593910,65.141296 109.214844,74.347588 
	C106.248970,79.423698 104.018120,79.467979 101.092888,74.435753 
	C94.731171,63.491776 88.445015,52.503094 82.225090,41.477898 
	C80.044235,37.612198 80.738640,36.281651 85.106857,36.133541 
	C90.765991,35.941654 96.444244,35.923576 102.100395,36.161102 
	C106.425461,36.342731 107.301697,38.147209 105.221451,42.080147 
	C103.274620,45.760876 101.025139,49.283123 99.123016,52.985157 
	C98.306862,54.573597 98.032379,56.440338 97.511795,58.180637 
	C98.059967,58.427639 98.608139,58.674641 99.156311,58.921642 
	C105.203049,48.543083 111.249786,38.164524 117.506088,27.484486 
z"/>
<path fill="#03415E" opacity="1.000000" stroke="none" 
	d="
M33.400398,67.302933 
	C37.910778,59.517212 42.276726,52.050564 46.587643,44.552280 
	C51.595886,35.841076 58.360458,33.514328 69.126465,37.464436 
	C67.822220,40.112160 66.688705,42.780621 65.250069,45.272953 
	C57.183735,59.247253 49.062489,73.189987 40.919441,87.119797 
	C37.838337,92.390450 35.685661,92.281387 32.627483,86.948059 
	C26.670347,76.559074 20.646038,66.208611 14.644605,55.845051 
	C11.613160,50.610214 12.406699,49.153599 18.532318,49.041737 
	C23.356674,48.953644 28.186680,48.925629 33.009251,49.054790 
	C38.553101,49.203262 39.410484,50.985229 36.545170,55.890808 
	C34.616020,59.193626 32.653412,62.482536 30.886225,65.871758 
	C30.092783,67.393478 29.740778,69.145363 29.188461,70.792809 
	C29.609222,71.043816 30.029985,71.294830 30.450747,71.545837 
	C31.377708,70.233223 32.304668,68.920616 33.400398,67.302933 
z"/>
</svg>